<?xml version="1.0" encoding="utf-8"?>
<!-- Generator: Adobe Illustrator 26.0.0, SVG Export Plug-In . SVG Version: 6.00 Build 0)  -->
<svg version="1.1" id="Capa_1" xmlns="http://www.w3.org/2000/svg" xmlns:xlink="http://www.w3.org/1999/xlink" x="0px" y="0px"
	 viewBox="0 0 481 83" style="enable-background:new 0 0 481 83;" xml:space="preserve">
<style type="text/css">
	.st0{fill:#14345C;}
	.st1{fill:url(#SVGID_1_);}
	.st2{fill:url(#SVGID_00000177450456079307240270000003974215658552166802_);}
	.st3{fill:url(#SVGID_00000097488452554462541920000004336302194247321774_);}
	.st4{fill:url(#SVGID_00000088831656597687773950000005980128289588025507_);}
	.st5{fill:url(#SVGID_00000120530006428845145910000013737199471710033036_);}
	.st6{fill:url(#SVGID_00000067220115152286311390000009264572481053387943_);}
	.st7{fill:url(#SVGID_00000023238877039580620560000007300120811266263699_);}
	.st8{fill:url(#SVGID_00000063597113977103896370000004455057563505274803_);}
	.st9{fill:url(#SVGID_00000129208079589971512750000005048131717879594908_);}
	.st10{fill:#2A56AA;}
</style>
<path class="st0" d="M401.2,59.3l-17-38h11.6l10.9,27.2L418,21.2h11.6l-24.8,55.9h-11.5L401.2,59.3z"/>
<path class="st0" d="M469.1,36.6v23.7h-8.7l-0.7-5.2c-2.8,4-8.6,6-13.5,6c-8.9,0-15.8-4.6-15.8-12.8c0-8.5,7.6-11.3,17.3-11.3h11.8
	c-0.2-5.8-2.1-8.3-9-8.3c-5,0-8.3,2.7-10.2,5.5l-8.1-5.3c4.2-5.1,9.7-8.6,18.2-8.6C462.1,20.4,469.1,27.1,469.1,36.6z M459.5,44.2
	v-0.3h-11.2c-4.8,0-7,2.3-7,4.7c0,2.6,2.3,4.4,7,4.4C454.8,53.1,458.8,48.8,459.5,44.2z"/>
<g>
	
		<linearGradient id="SVGID_1_" gradientUnits="userSpaceOnUse" x1="20.0921" y1="245.215" x2="378.8645" y2="245.215" gradientTransform="matrix(1 0 0 -1 0 286)">
		<stop  offset="0" style="stop-color:#2655A8"/>
		<stop  offset="0.3187" style="stop-color:#245DA0"/>
		<stop  offset="0.8241" style="stop-color:#1D748C"/>
		<stop  offset="1" style="stop-color:#1A7E83"/>
	</linearGradient>
	<polygon class="st1" points="83.8,21.2 74.8,34.1 65.8,21.2 53,21.2 67.8,40.6 53,60.3 65.8,60.3 74.8,47.2 83.8,60.3 96.8,60.3 
		81.9,40.6 96.8,21.2 	"/>
	
		<linearGradient id="SVGID_00000129918669411697541460000009572687794149755564_" gradientUnits="userSpaceOnUse" x1="20.0921" y1="237.525" x2="378.8645" y2="237.525" gradientTransform="matrix(1 0 0 -1 0 286)">
		<stop  offset="0" style="stop-color:#2655A8"/>
		<stop  offset="0.3187" style="stop-color:#245DA0"/>
		<stop  offset="0.8241" style="stop-color:#1D748C"/>
		<stop  offset="1" style="stop-color:#1A7E83"/>
	</linearGradient>
	<path style="fill:url(#SVGID_00000129918669411697541460000009572687794149755564_);" d="M126.9,20.4c-4.5,0-9.3,1.4-12.4,4.7v-3.9
		h-10.9v55.3h10.9V56.4c3,3.4,7.6,4.7,12.2,4.7c12.2,0,18.8-9.4,18.8-20.4C145.5,30,139,20.4,126.9,20.4z M124.3,52.5
		c-7.3,0-10.7-5.1-10.7-11.7s3.4-11.5,10.7-11.5c7.3,0,10.5,5,10.5,11.5C134.8,47.3,131.6,52.5,124.3,52.5z"/>
	
		<linearGradient id="SVGID_00000161593831412087776390000013808996596933839497_" gradientUnits="userSpaceOnUse" x1="20.0921" y1="245.235" x2="378.8645" y2="245.235" gradientTransform="matrix(1 0 0 -1 0 286)">
		<stop  offset="0" style="stop-color:#2655A8"/>
		<stop  offset="0.3187" style="stop-color:#245DA0"/>
		<stop  offset="0.8241" style="stop-color:#1D748C"/>
		<stop  offset="1" style="stop-color:#1A7E83"/>
	</linearGradient>
	<path style="fill:url(#SVGID_00000161593831412087776390000013808996596933839497_);" d="M172.1,20.4c-14.7,0-21.3,10.3-21.3,20.5
		c0,10.5,7,20.2,22,20.2c7.3,0,13.1-2.3,17.8-7l-7.3-5.8c-3,3-6.5,4.1-10.4,4.1c-6.8,0-9.9-3.4-10.9-8.6h29.8
		c0.2-0.5,0.4-2.1,0.4-3.8C192.2,31.4,187.3,20.4,172.1,20.4z M162,37c1-4.9,3.7-8.6,10-8.6c4.6,0,8.3,2.1,9.4,6.1
		c0.3,0.8,0.4,1.6,0.4,2.5L162,37L162,37z"/>
	
		<linearGradient id="SVGID_00000086656178156005145270000007998052472469571256_" gradientUnits="userSpaceOnUse" x1="20.0921" y1="245.63" x2="378.8645" y2="245.63" gradientTransform="matrix(1 0 0 -1 0 286)">
		<stop  offset="0" style="stop-color:#2655A8"/>
		<stop  offset="0.3187" style="stop-color:#245DA0"/>
		<stop  offset="0.8241" style="stop-color:#1D748C"/>
		<stop  offset="1" style="stop-color:#1A7E83"/>
	</linearGradient>
	<path style="fill:url(#SVGID_00000086656178156005145270000007998052472469571256_);" d="M211.4,27.8v-6.6H201v39.1h10.2V43.8
		c0-9.9,5.2-14.1,10.1-14.1c1.7,0,3.3,0.5,4.7,1.3l4.8-7.8c-2.1-1.9-5.1-2.8-8-2.8C218.1,20.4,213.2,23.1,211.4,27.8z"/>
	
		<linearGradient id="SVGID_00000119084299125879555060000007489367985237407881_" gradientUnits="userSpaceOnUse" x1="5.3932" y1="273.7929" x2="374.6939" y2="278.1122" gradientTransform="matrix(1 0 0 -1 0 286)">
		<stop  offset="0" style="stop-color:#0058CF"/>
		<stop  offset="0.208" style="stop-color:#0560C7"/>
		<stop  offset="0.5387" style="stop-color:#1477B0"/>
		<stop  offset="0.9489" style="stop-color:#2C9D8B"/>
		<stop  offset="1" style="stop-color:#2FA286"/>
	</linearGradient>
	<rect x="236.4" y="5" style="fill:url(#SVGID_00000119084299125879555060000007489367985237407881_);" width="11.1" height="8.8"/>
	
		<linearGradient id="SVGID_00000013871837200970019560000006059496299089699247_" gradientUnits="userSpaceOnUse" x1="20.0921" y1="245.215" x2="378.8645" y2="245.215" gradientTransform="matrix(1 0 0 -1 0 286)">
		<stop  offset="0" style="stop-color:#2655A8"/>
		<stop  offset="0.3187" style="stop-color:#245DA0"/>
		<stop  offset="0.8241" style="stop-color:#1D748C"/>
		<stop  offset="1" style="stop-color:#1A7E83"/>
	</linearGradient>
	
		<rect x="236.7" y="21.2" style="fill:url(#SVGID_00000013871837200970019560000006059496299089699247_);" width="10.6" height="39.1"/>
	
		<linearGradient id="SVGID_00000168832375735914322700000005274973143053428614_" gradientUnits="userSpaceOnUse" x1="20.0921" y1="245.235" x2="378.8645" y2="245.235" gradientTransform="matrix(1 0 0 -1 0 286)">
		<stop  offset="0" style="stop-color:#2655A8"/>
		<stop  offset="0.3187" style="stop-color:#245DA0"/>
		<stop  offset="0.8241" style="stop-color:#1D748C"/>
		<stop  offset="1" style="stop-color:#1A7E83"/>
	</linearGradient>
	<path style="fill:url(#SVGID_00000168832375735914322700000005274973143053428614_);" d="M277.4,20.4c-14.7,0-21.3,10.3-21.3,20.5
		c0,10.5,7,20.2,22,20.2c7.3,0,13.1-2.3,17.8-7l-7.3-5.8c-3,3-6.5,4.1-10.4,4.1c-6.8,0-10-3.4-10.9-8.6h29.8
		c0.2-0.5,0.4-2.1,0.4-3.8C297.5,31.4,292.6,20.4,277.4,20.4z M267.3,37c1-4.9,3.7-8.6,10-8.6c4.6,0,8.3,2.1,9.4,6.1
		c0.3,0.8,0.4,1.6,0.4,2.5L267.3,37L267.3,37z"/>
	
		<linearGradient id="SVGID_00000108275723396723614460000003271589347899423401_" gradientUnits="userSpaceOnUse" x1="20.0921" y1="245.625" x2="378.8645" y2="245.625" gradientTransform="matrix(1 0 0 -1 0 286)">
		<stop  offset="0" style="stop-color:#2655A8"/>
		<stop  offset="0.3187" style="stop-color:#245DA0"/>
		<stop  offset="0.8241" style="stop-color:#1D748C"/>
		<stop  offset="1" style="stop-color:#1A7E83"/>
	</linearGradient>
	<path style="fill:url(#SVGID_00000108275723396723614460000003271589347899423401_);" d="M329.6,20.4c-4.3,0-9.2,1.5-12.7,5.4v-4.5
		h-10.6v39.1h10.6V38.9c0-6.8,3.7-9.7,9.7-9.7c5.4,0,8.3,3.7,8.3,8.8v22.3h10.6V36.9C345.5,28.7,341,20.4,329.6,20.4z"/>
	
		<linearGradient id="SVGID_00000072986237898355743290000001200629579584437123_" gradientUnits="userSpaceOnUse" x1="20.0921" y1="253.08" x2="378.8645" y2="253.08" gradientTransform="matrix(1 0 0 -1 0 286)">
		<stop  offset="0" style="stop-color:#2655A8"/>
		<stop  offset="0.3187" style="stop-color:#245DA0"/>
		<stop  offset="0.8241" style="stop-color:#1D748C"/>
		<stop  offset="1" style="stop-color:#1A7E83"/>
	</linearGradient>
	<path style="fill:url(#SVGID_00000072986237898355743290000001200629579584437123_);" d="M380.1,29.2v-8h-10.9V4.7l-10.4,6.8v9.7
		h-7.2v8h7v20.3c0,7.1,5.1,11.6,13.5,11.6c3.2,0,6.3-0.6,7.9-1.2v-8.6c-1.4,0.6-3.8,1.4-6,1.4c-2.8,0-4.8-1.1-4.8-4.9V29.2
		L380.1,29.2L380.1,29.2z"/>
	<path class="st10" d="M30.8,20.3c-14.4,0-20.9,10.2-20.9,20.2c0,10.4,6.9,19.9,21.6,19.9c6.9,0,12.3-2.1,16.9-6.3
		c0.3-0.3,0.3-0.9-0.1-1.2l-6.5-5.1c-3,3-6.4,4.1-10.3,4.1c-6.3,0-9.4-3-10.5-7.5c6.6,0.8,27.2,2.6,29.3-5c0.1-0.2,0.1-0.5,0.1-0.7
		c0-0.1,0-0.1,0-0.2C50.6,29.8,45.8,20.3,30.8,20.3z M20.7,42c-0.3-3,0.2-5.4,0.2-5.4c1-4.8,3.7-8.4,9.8-8.4c4.5,0,8.2,2,9.3,6
		c0.2,0.6,0.3,1.3,0.3,2C40.3,37.5,38.9,42.3,20.7,42z"/>
</g>
</svg>
