<?xml version="1.0" encoding="utf-8"?>
<!-- Generator: Adobe Illustrator 26.0.0, SVG Export Plug-In . SVG Version: 6.00 Build 0)  -->
<svg version="1.1" id="Capa_1" xmlns="http://www.w3.org/2000/svg" xmlns:xlink="http://www.w3.org/1999/xlink" x="0px" y="0px"
	 viewBox="0 0 524 120" style="enable-background:new 0 0 524 120;" xml:space="preserve">
<style type="text/css">
	.st0{fill:#14345C;}
	.st1{fill:url(#SVGID_1_);}
	.st2{fill:url(#SVGID_00000023989273093332237190000017215676678465959856_);}
	.st3{fill:url(#SVGID_00000084502048731194333140000003021974721307732117_);}
	.st4{fill:url(#SVGID_00000007409870201109922970000011061604308778377137_);}
	.st5{fill:url(#SVGID_00000024723161211667253800000007153833892036954008_);}
	.st6{fill:url(#SVGID_00000122679942773253498600000017231197124516532141_);}
	.st7{fill:url(#SVGID_00000127744796804721606500000006494480872678132354_);}
	.st8{fill:url(#SVGID_00000179609448658643960940000002090915711354050193_);}
	.st9{fill:url(#SVGID_00000116944663139594189650000002382409891475781253_);}
	.st10{fill:#2A56AA;}
</style>
<path class="st0" d="M420.2,81.3l-17-38h11.6l10.9,27.2L437,43.2h11.6l-24.8,55.9h-11.5L420.2,81.3z"/>
<path class="st0" d="M488.1,58.6v23.7h-8.7l-0.7-5.2c-2.8,4-8.6,6-13.5,6c-8.9,0-15.8-4.6-15.8-12.8c0-8.5,7.6-11.3,17.3-11.3h11.8
	c-0.2-5.8-2.1-8.3-9-8.3c-5,0-8.3,2.7-10.2,5.5l-8.1-5.3c4.2-5.1,9.7-8.6,18.2-8.6C481.1,42.4,488.1,49.1,488.1,58.6z M478.5,66.2
	v-0.3h-11.2c-4.8,0-7,2.3-7,4.7c0,2.6,2.3,4.4,7,4.4C473.8,75.1,477.8,70.8,478.5,66.2z"/>
<g>
	
		<linearGradient id="SVGID_1_" gradientUnits="userSpaceOnUse" x1="39.0921" y1="267.215" x2="397.8645" y2="267.215" gradientTransform="matrix(1 0 0 -1 0 330)">
		<stop  offset="0" style="stop-color:#2655A8"/>
		<stop  offset="0.3187" style="stop-color:#245DA0"/>
		<stop  offset="0.8241" style="stop-color:#1D748C"/>
		<stop  offset="1" style="stop-color:#1A7E83"/>
	</linearGradient>
	<polygon class="st1" points="102.8,43.2 93.8,56.1 84.8,43.2 72,43.2 86.8,62.6 72,82.3 84.8,82.3 93.8,69.2 102.8,82.3 
		115.8,82.3 100.9,62.6 115.8,43.2 	"/>
	
		<linearGradient id="SVGID_00000143591806074862650650000010113648224560947135_" gradientUnits="userSpaceOnUse" x1="39.0921" y1="259.525" x2="397.8645" y2="259.525" gradientTransform="matrix(1 0 0 -1 0 330)">
		<stop  offset="0" style="stop-color:#2655A8"/>
		<stop  offset="0.3187" style="stop-color:#245DA0"/>
		<stop  offset="0.8241" style="stop-color:#1D748C"/>
		<stop  offset="1" style="stop-color:#1A7E83"/>
	</linearGradient>
	<path style="fill:url(#SVGID_00000143591806074862650650000010113648224560947135_);" d="M145.9,42.4c-4.5,0-9.3,1.4-12.4,4.7v-3.9
		h-10.9v55.3h10.9V78.4c3,3.4,7.6,4.7,12.2,4.7c12.2,0,18.8-9.4,18.8-20.4C164.5,52,158,42.4,145.9,42.4z M143.3,74.5
		c-7.3,0-10.7-5.1-10.7-11.7s3.4-11.5,10.7-11.5c7.3,0,10.5,5,10.5,11.5C153.8,69.3,150.6,74.5,143.3,74.5z"/>
	
		<linearGradient id="SVGID_00000179613104943385107420000008004246746937679788_" gradientUnits="userSpaceOnUse" x1="39.0921" y1="267.235" x2="397.8645" y2="267.235" gradientTransform="matrix(1 0 0 -1 0 330)">
		<stop  offset="0" style="stop-color:#2655A8"/>
		<stop  offset="0.3187" style="stop-color:#245DA0"/>
		<stop  offset="0.8241" style="stop-color:#1D748C"/>
		<stop  offset="1" style="stop-color:#1A7E83"/>
	</linearGradient>
	<path style="fill:url(#SVGID_00000179613104943385107420000008004246746937679788_);" d="M191.1,42.4c-14.7,0-21.3,10.3-21.3,20.5
		c0,10.5,7,20.2,22,20.2c7.3,0,13.1-2.3,17.8-7l-7.3-5.8c-3,3-6.5,4.1-10.4,4.1c-6.8,0-9.9-3.4-10.9-8.6h29.8
		c0.2-0.5,0.4-2.1,0.4-3.8C211.2,53.4,206.3,42.4,191.1,42.4z M181,59c1-4.9,3.7-8.6,10-8.6c4.6,0,8.3,2.1,9.4,6.1
		c0.3,0.8,0.4,1.6,0.4,2.5L181,59L181,59z"/>
	
		<linearGradient id="SVGID_00000158741472232776117550000014953413813216748958_" gradientUnits="userSpaceOnUse" x1="39.0921" y1="267.63" x2="397.8645" y2="267.63" gradientTransform="matrix(1 0 0 -1 0 330)">
		<stop  offset="0" style="stop-color:#2655A8"/>
		<stop  offset="0.3187" style="stop-color:#245DA0"/>
		<stop  offset="0.8241" style="stop-color:#1D748C"/>
		<stop  offset="1" style="stop-color:#1A7E83"/>
	</linearGradient>
	<path style="fill:url(#SVGID_00000158741472232776117550000014953413813216748958_);" d="M230.4,49.8v-6.6H220v39.1h10.2V65.8
		c0-9.9,5.2-14.1,10.1-14.1c1.7,0,3.3,0.5,4.7,1.3l4.8-7.8c-2.1-1.9-5.1-2.8-8-2.8C237.1,42.4,232.2,45.1,230.4,49.8z"/>
	
		<linearGradient id="SVGID_00000042705708120000875930000009636268568154391443_" gradientUnits="userSpaceOnUse" x1="24.3932" y1="295.7929" x2="393.6939" y2="300.1122" gradientTransform="matrix(1 0 0 -1 0 330)">
		<stop  offset="0" style="stop-color:#0058CF"/>
		<stop  offset="0.208" style="stop-color:#0560C7"/>
		<stop  offset="0.5387" style="stop-color:#1477B0"/>
		<stop  offset="0.9489" style="stop-color:#2C9D8B"/>
		<stop  offset="1" style="stop-color:#2FA286"/>
	</linearGradient>
	
		<rect x="255.4" y="27" style="fill:url(#SVGID_00000042705708120000875930000009636268568154391443_);" width="11.1" height="8.8"/>
	
		<linearGradient id="SVGID_00000158025952292205738720000006017754504669345701_" gradientUnits="userSpaceOnUse" x1="39.0921" y1="267.215" x2="397.8645" y2="267.215" gradientTransform="matrix(1 0 0 -1 0 330)">
		<stop  offset="0" style="stop-color:#2655A8"/>
		<stop  offset="0.3187" style="stop-color:#245DA0"/>
		<stop  offset="0.8241" style="stop-color:#1D748C"/>
		<stop  offset="1" style="stop-color:#1A7E83"/>
	</linearGradient>
	
		<rect x="255.7" y="43.2" style="fill:url(#SVGID_00000158025952292205738720000006017754504669345701_);" width="10.6" height="39.1"/>
	
		<linearGradient id="SVGID_00000145752243532338696710000006258630854859669635_" gradientUnits="userSpaceOnUse" x1="39.0921" y1="267.235" x2="397.8645" y2="267.235" gradientTransform="matrix(1 0 0 -1 0 330)">
		<stop  offset="0" style="stop-color:#2655A8"/>
		<stop  offset="0.3187" style="stop-color:#245DA0"/>
		<stop  offset="0.8241" style="stop-color:#1D748C"/>
		<stop  offset="1" style="stop-color:#1A7E83"/>
	</linearGradient>
	<path style="fill:url(#SVGID_00000145752243532338696710000006258630854859669635_);" d="M296.4,42.4c-14.7,0-21.3,10.3-21.3,20.5
		c0,10.5,7,20.2,22,20.2c7.3,0,13.1-2.3,17.8-7l-7.3-5.8c-3,3-6.5,4.1-10.4,4.1c-6.8,0-10-3.4-10.9-8.6h29.8
		c0.2-0.5,0.4-2.1,0.4-3.8C316.5,53.4,311.6,42.4,296.4,42.4z M286.3,59c1-4.9,3.7-8.6,10-8.6c4.6,0,8.3,2.1,9.4,6.1
		c0.3,0.8,0.4,1.6,0.4,2.5L286.3,59L286.3,59z"/>
	
		<linearGradient id="SVGID_00000171679728246730484230000001800321946128742290_" gradientUnits="userSpaceOnUse" x1="39.0921" y1="267.625" x2="397.8645" y2="267.625" gradientTransform="matrix(1 0 0 -1 0 330)">
		<stop  offset="0" style="stop-color:#2655A8"/>
		<stop  offset="0.3187" style="stop-color:#245DA0"/>
		<stop  offset="0.8241" style="stop-color:#1D748C"/>
		<stop  offset="1" style="stop-color:#1A7E83"/>
	</linearGradient>
	<path style="fill:url(#SVGID_00000171679728246730484230000001800321946128742290_);" d="M348.6,42.4c-4.3,0-9.2,1.5-12.7,5.4v-4.5
		h-10.6v39.1h10.6V60.9c0-6.8,3.7-9.7,9.7-9.7c5.4,0,8.3,3.7,8.3,8.8v22.3h10.6V58.9C364.5,50.7,360,42.4,348.6,42.4z"/>
	
		<linearGradient id="SVGID_00000057831811576202111000000000373344229829761921_" gradientUnits="userSpaceOnUse" x1="39.0921" y1="275.08" x2="397.8645" y2="275.08" gradientTransform="matrix(1 0 0 -1 0 330)">
		<stop  offset="0" style="stop-color:#2655A8"/>
		<stop  offset="0.3187" style="stop-color:#245DA0"/>
		<stop  offset="0.8241" style="stop-color:#1D748C"/>
		<stop  offset="1" style="stop-color:#1A7E83"/>
	</linearGradient>
	<path style="fill:url(#SVGID_00000057831811576202111000000000373344229829761921_);" d="M399.1,51.2v-8h-10.9V26.7l-10.4,6.8v9.7
		h-7.2v8h7v20.3c0,7.1,5.1,11.6,13.5,11.6c3.2,0,6.3-0.6,7.9-1.2v-8.6c-1.4,0.6-3.8,1.4-6,1.4c-2.8,0-4.8-1.1-4.8-4.9V51.2
		L399.1,51.2L399.1,51.2z"/>
	<path class="st10" d="M49.8,42.3c-14.4,0-20.9,10.2-20.9,20.2c0,10.4,6.9,19.9,21.6,19.9c6.9,0,12.3-2.1,16.9-6.3
		c0.3-0.3,0.3-0.9-0.1-1.2l-6.5-5.1c-3,3-6.4,4.1-10.3,4.1c-6.3,0-9.4-3-10.5-7.5c6.6,0.8,27.2,2.6,29.3-5c0.1-0.2,0.1-0.5,0.1-0.7
		c0-0.1,0-0.1,0-0.2C69.6,51.8,64.8,42.3,49.8,42.3z M39.7,64c-0.3-3,0.2-5.4,0.2-5.4c1-4.8,3.7-8.4,9.8-8.4c4.5,0,8.2,2,9.3,6
		c0.2,0.6,0.3,1.3,0.3,2C59.3,59.5,57.9,64.3,39.7,64z"/>
</g>
</svg>
