<?xml version="1.0" encoding="utf-8"?>
<!-- Generator: Adobe Illustrator 26.0.0, SVG Export Plug-In . SVG Version: 6.00 Build 0)  -->
<svg version="1.1" id="Capa_1" xmlns="http://www.w3.org/2000/svg" xmlns:xlink="http://www.w3.org/1999/xlink" x="0px" y="0px"
	 viewBox="0 0 740 146" style="enable-background:new 0 0 740 146;" xml:space="preserve">
<style type="text/css">
	.st0{fill:#14345C;}
	.st1{fill:url(#SVGID_1_);}
	.st2{fill:url(#SVGID_00000000195818898641466620000016823508379248524197_);}
	.st3{fill:url(#SVGID_00000146480491506576199120000009618717033824231605_);}
	.st4{fill:url(#SVGID_00000085213691236784734840000008274913691978427795_);}
	.st5{fill:url(#SVGID_00000153701812580703278170000002197573301388619414_);}
	.st6{fill:url(#SVGID_00000139973359195626382960000003503078085257339566_);}
	.st7{fill:url(#SVGID_00000036252273348530425800000014756469326513371287_);}
	.st8{fill:url(#SVGID_00000024698895200147563210000006652716188690060190_);}
	.st9{fill:url(#SVGID_00000121266388892479359830000013625172963663174272_);}
	.st10{fill:#2A56AA;}
	.st11{fill:url(#SVGID_00000127732266287258215260000002382628561626590616_);}
	.st12{fill:#5178BA;}
</style>
<path class="st0" d="M664.1,94.4l-17-38h11.6l10.9,27.2l11.1-27.2h11.6l-24.8,55.9h-11.5L664.1,94.4z"/>
<path class="st0" d="M731.9,71.8v23.7h-8.7l-0.7-5.2c-2.8,4-8.6,6-13.5,6c-8.9,0-15.8-4.6-15.8-12.8c0-8.5,7.6-11.3,17.3-11.3h11.8
	c-0.2-5.8-2.1-8.3-9-8.3c-5,0-8.3,2.7-10.2,5.5l-8.1-5.3c4.2-5.1,9.7-8.6,18.2-8.6C725,55.6,731.9,62.2,731.9,71.8z M722.3,79.4
	v-0.3h-11.2c-4.8,0-7,2.3-7,4.7c0,2.6,2.3,4.4,7,4.4C717.6,88.2,721.7,84,722.3,79.4z"/>
<g>
	
		<linearGradient id="SVGID_1_" gradientUnits="userSpaceOnUse" x1="282.9177" y1="538.0527" x2="641.6901" y2="538.0527" gradientTransform="matrix(1 0 0 -1 0 614)">
		<stop  offset="0" style="stop-color:#2655A8"/>
		<stop  offset="0.3187" style="stop-color:#245DA0"/>
		<stop  offset="0.8241" style="stop-color:#1D748C"/>
		<stop  offset="1" style="stop-color:#1A7E83"/>
	</linearGradient>
	<polygon class="st1" points="346.7,56.4 337.7,69.3 328.7,56.4 315.8,56.4 330.6,75.8 315.8,95.5 328.7,95.5 337.7,82.3 
		346.7,95.5 359.6,95.5 344.7,75.8 359.6,56.4 	"/>
	
		<linearGradient id="SVGID_00000036940051137992852980000004418234456265779329_" gradientUnits="userSpaceOnUse" x1="282.9177" y1="530.3627" x2="641.6901" y2="530.3627" gradientTransform="matrix(1 0 0 -1 0 614)">
		<stop  offset="0" style="stop-color:#2655A8"/>
		<stop  offset="0.3187" style="stop-color:#245DA0"/>
		<stop  offset="0.8241" style="stop-color:#1D748C"/>
		<stop  offset="1" style="stop-color:#1A7E83"/>
	</linearGradient>
	<path style="fill:url(#SVGID_00000036940051137992852980000004418234456265779329_);" d="M389.8,55.6c-4.5,0-9.3,1.4-12.4,4.7v-3.9
		h-10.9v55.3h10.9V91.6c3,3.4,7.6,4.7,12.2,4.7c12.2,0,18.8-9.4,18.8-20.4C408.4,65.1,401.8,55.6,389.8,55.6z M387.1,87.6
		c-7.3,0-10.7-5.1-10.7-11.7s3.4-11.5,10.7-11.5c7.3,0,10.5,5,10.5,11.5C397.7,82.4,394.4,87.6,387.1,87.6z"/>
	
		<linearGradient id="SVGID_00000002356156726305776110000009075780136587296692_" gradientUnits="userSpaceOnUse" x1="282.9177" y1="538.0728" x2="641.6901" y2="538.0728" gradientTransform="matrix(1 0 0 -1 0 614)">
		<stop  offset="0" style="stop-color:#2655A8"/>
		<stop  offset="0.3187" style="stop-color:#245DA0"/>
		<stop  offset="0.8241" style="stop-color:#1D748C"/>
		<stop  offset="1" style="stop-color:#1A7E83"/>
	</linearGradient>
	<path style="fill:url(#SVGID_00000002356156726305776110000009075780136587296692_);" d="M434.9,55.6c-14.7,0-21.3,10.3-21.3,20.5
		c0,10.5,7,20.2,22,20.2c7.3,0,13.1-2.3,17.8-7l-7.3-5.8c-3,3-6.5,4.1-10.4,4.1c-6.8,0-9.9-3.4-10.9-8.6h29.8
		c0.2-0.5,0.4-2.1,0.4-3.8C455,66.6,450.1,55.6,434.9,55.6z M424.8,72.2c1-4.9,3.7-8.6,10-8.6c4.6,0,8.3,2.1,9.4,6.1
		c0.3,0.8,0.4,1.6,0.4,2.5L424.8,72.2L424.8,72.2z"/>
	
		<linearGradient id="SVGID_00000183959236627851089720000011295400154550878655_" gradientUnits="userSpaceOnUse" x1="282.9177" y1="538.4678" x2="641.6901" y2="538.4678" gradientTransform="matrix(1 0 0 -1 0 614)">
		<stop  offset="0" style="stop-color:#2655A8"/>
		<stop  offset="0.3187" style="stop-color:#245DA0"/>
		<stop  offset="0.8241" style="stop-color:#1D748C"/>
		<stop  offset="1" style="stop-color:#1A7E83"/>
	</linearGradient>
	<path style="fill:url(#SVGID_00000183959236627851089720000011295400154550878655_);" d="M474.2,63v-6.6h-10.3v39.1h10.2V79
		c0-9.9,5.2-14.1,10.1-14.1c1.7,0,3.3,0.5,4.7,1.3l4.8-7.8c-2.1-1.9-5.1-2.8-8-2.8C481,55.6,476.1,58.2,474.2,63z"/>
	
		<linearGradient id="SVGID_00000008837882736737904770000016507703288995979451_" gradientUnits="userSpaceOnUse" x1="268.2188" y1="566.6307" x2="637.5195" y2="570.95" gradientTransform="matrix(1 0 0 -1 0 614)">
		<stop  offset="0" style="stop-color:#0058CF"/>
		<stop  offset="0.208" style="stop-color:#0560C7"/>
		<stop  offset="0.5387" style="stop-color:#1477B0"/>
		<stop  offset="0.9489" style="stop-color:#2C9D8B"/>
		<stop  offset="1" style="stop-color:#2FA286"/>
	</linearGradient>
	
		<rect x="499.2" y="40.2" style="fill:url(#SVGID_00000008837882736737904770000016507703288995979451_);" width="11.1" height="8.8"/>
	
		<linearGradient id="SVGID_00000018947401382462697070000010271618261435609527_" gradientUnits="userSpaceOnUse" x1="282.9177" y1="538.0527" x2="641.6901" y2="538.0527" gradientTransform="matrix(1 0 0 -1 0 614)">
		<stop  offset="0" style="stop-color:#2655A8"/>
		<stop  offset="0.3187" style="stop-color:#245DA0"/>
		<stop  offset="0.8241" style="stop-color:#1D748C"/>
		<stop  offset="1" style="stop-color:#1A7E83"/>
	</linearGradient>
	
		<rect x="499.5" y="56.4" style="fill:url(#SVGID_00000018947401382462697070000010271618261435609527_);" width="10.6" height="39.1"/>
	
		<linearGradient id="SVGID_00000181792183593451648020000000306640430552689572_" gradientUnits="userSpaceOnUse" x1="282.9177" y1="538.0728" x2="641.6901" y2="538.0728" gradientTransform="matrix(1 0 0 -1 0 614)">
		<stop  offset="0" style="stop-color:#2655A8"/>
		<stop  offset="0.3187" style="stop-color:#245DA0"/>
		<stop  offset="0.8241" style="stop-color:#1D748C"/>
		<stop  offset="1" style="stop-color:#1A7E83"/>
	</linearGradient>
	<path style="fill:url(#SVGID_00000181792183593451648020000000306640430552689572_);" d="M540.2,55.6c-14.7,0-21.3,10.3-21.3,20.5
		c0,10.5,7,20.2,22,20.2c7.3,0,13.1-2.3,17.8-7l-7.3-5.8c-3,3-6.5,4.1-10.4,4.1c-6.8,0-10-3.4-10.9-8.6h29.8
		c0.2-0.5,0.4-2.1,0.4-3.8C560.3,66.6,555.4,55.6,540.2,55.6z M530.1,72.2c1-4.9,3.7-8.6,10-8.6c4.6,0,8.3,2.1,9.4,6.1
		c0.3,0.8,0.4,1.6,0.4,2.5L530.1,72.2L530.1,72.2z"/>
	
		<linearGradient id="SVGID_00000028312688356388978630000001613914219389266878_" gradientUnits="userSpaceOnUse" x1="282.9177" y1="538.4628" x2="641.6901" y2="538.4628" gradientTransform="matrix(1 0 0 -1 0 614)">
		<stop  offset="0" style="stop-color:#2655A8"/>
		<stop  offset="0.3187" style="stop-color:#245DA0"/>
		<stop  offset="0.8241" style="stop-color:#1D748C"/>
		<stop  offset="1" style="stop-color:#1A7E83"/>
	</linearGradient>
	<path style="fill:url(#SVGID_00000028312688356388978630000001613914219389266878_);" d="M592.5,55.6c-4.3,0-9.2,1.5-12.7,5.4v-4.5
		h-10.6v39.1h10.6V74.1c0-6.8,3.7-9.7,9.7-9.7c5.4,0,8.3,3.7,8.3,8.8v22.3h10.6V72C608.3,63.8,603.9,55.6,592.5,55.6z"/>
	
		<linearGradient id="SVGID_00000163040607954289050400000009425701076613932425_" gradientUnits="userSpaceOnUse" x1="282.9177" y1="545.9178" x2="641.6901" y2="545.9178" gradientTransform="matrix(1 0 0 -1 0 614)">
		<stop  offset="0" style="stop-color:#2655A8"/>
		<stop  offset="0.3187" style="stop-color:#245DA0"/>
		<stop  offset="0.8241" style="stop-color:#1D748C"/>
		<stop  offset="1" style="stop-color:#1A7E83"/>
	</linearGradient>
	<path style="fill:url(#SVGID_00000163040607954289050400000009425701076613932425_);" d="M642.9,64.4v-8H632V39.9l-10.4,6.8v9.7
		h-7.2v8h7v20.3c0,7.1,5.1,11.6,13.5,11.6c3.2,0,6.3-0.6,7.9-1.2v-8.6c-1.4,0.6-3.8,1.4-6,1.4c-2.8,0-4.8-1.1-4.8-4.9V64.4
		L642.9,64.4L642.9,64.4z"/>
	<path class="st10" d="M293.7,55.4c-14.4,0-20.9,10.2-20.9,20.2c0,10.4,6.9,19.9,21.6,19.9c6.9,0,12.3-2.1,16.9-6.3
		c0.3-0.3,0.3-0.9-0.1-1.2l-6.5-5.1c-3,3-6.4,4.1-10.3,4.1c-6.3,0-9.4-3-10.5-7.5c6.6,0.8,27.2,2.6,29.3-5c0.1-0.2,0.1-0.5,0.1-0.7
		c0-0.1,0-0.1,0-0.2C313.4,65,308.6,55.4,293.7,55.4z M283.6,77.2c-0.3-3,0.2-5.4,0.2-5.4c1-4.8,3.7-8.4,9.8-8.4c4.5,0,8.2,2,9.3,6
		c0.2,0.6,0.3,1.3,0.3,2C303.1,72.6,301.7,77.5,283.6,77.2z"/>
</g>
<g>
	<g>
		
			<linearGradient id="SVGID_00000030454404468905490770000010991099986048740480_" gradientUnits="userSpaceOnUse" x1="165.0403" y1="473.8327" x2="152.4088" y2="558.4642" gradientTransform="matrix(1 0 0 -1 0 614)">
			<stop  offset="0" style="stop-color:#0058CF"/>
			<stop  offset="0.208" style="stop-color:#0560C7"/>
			<stop  offset="0.5387" style="stop-color:#1477B0"/>
			<stop  offset="0.9489" style="stop-color:#2C9D8B"/>
			<stop  offset="1" style="stop-color:#2FA286"/>
		</linearGradient>
		<path style="fill:url(#SVGID_00000030454404468905490770000010991099986048740480_);" d="M152.7,109.1
			c-20.2,0-27.8-10.6-27.9-26.4l0,0c0.2-7.5,1.8-9.1,2.9-13.4c0.9-3.7,1.3-8,1.3-8c5.5-14.7,14.9-26,33.2-26
			c13.6,0,23.7,6.4,24.9,18.8c0.4,2.4,0.2,4.9-0.2,7.6h-0.7c2.4,4.5-0.1,12.7-1.9,18.5c0.2,0.2,0.2,0.1,0.5,0.3
			c9.1-7.9,21.4-11.3,31.8-16.1c0.2-0.1,0.5-2.8,0.7-2.8c1.7-25.3-9.5-50.8-50.6-50.9C123,10.6,98.2,42.3,93.1,73.5
			c-5.3,32.3,10.7,62.1,55,62.2c18.1,0,43.6-5.8,57.8-17.4c2.7-2.2,5-4.7,6.8-7.3l-20.9-14l0,0C178.8,106.7,161.8,109.2,152.7,109.1
			z"/>
	</g>
	<g>
		<path class="st12" d="M25.6,95.5c-3.1,0-6.2-1-8.8-3c-6.2-4.7-7.3-13.5-2.4-19.5c1.3-1.6,32.2-38.9,96.1-16.2
			c43.3,15.4,73.1,2.8,82.8-6c5.8-5.2,14.8-4.9,20.2,0.6c5.4,5.6,5.1,14.3-0.6,19.6c-15.2,13.8-55.9,31.8-112.2,11.8
			c-43.6-15.5-63,6.5-63.8,7.4C34,93.7,29.8,95.5,25.6,95.5z"/>
	</g>
</g>
</svg>
