<?xml version="1.0" encoding="utf-8"?>
<!-- Generator: Adobe Illustrator 26.0.0, SVG Export Plug-In . SVG Version: 6.00 Build 0)  -->
<svg version="1.1" id="Capa_1" xmlns="http://www.w3.org/2000/svg" xmlns:xlink="http://www.w3.org/1999/xlink" x="0px" y="0px"
	 viewBox="0 0 512 278" style="enable-background:new 0 0 512 278;" xml:space="preserve">
<style type="text/css">
	.st0{fill:#14345C;}
	.st1{fill:url(#SVGID_1_);}
	.st2{fill:url(#SVGID_00000163043758503474721530000007784958864705211061_);}
	.st3{fill:url(#SVGID_00000099636923335854307880000006696652935284813983_);}
	.st4{fill:url(#SVGID_00000136380944628829078310000014501214926167608468_);}
	.st5{fill:url(#SVGID_00000112613143253857097280000012449630898217727123_);}
	.st6{fill:url(#SVGID_00000102502143796507387950000006176333994334406327_);}
	.st7{fill:url(#SVGID_00000163054245146652177590000005546216396730244275_);}
	.st8{fill:url(#SVGID_00000145767130561024648530000003608843476897666185_);}
	.st9{fill:url(#SVGID_00000175283239219920965460000008804063453819297934_);}
	.st10{fill:#2A56AA;}
	.st11{fill:url(#SVGID_00000067205972837616222440000001077558774181838492_);}
	.st12{fill:#5178BA;}
</style>
<g>
	<path class="st0" d="M421.8,238.3l-17-38h11.6l10.9,27.2l11.1-27.2h11.6l-24.8,55.9h-11.5L421.8,238.3z"/>
	<path class="st0" d="M489.6,215.7v23.7h-8.7l-0.7-5.2c-2.8,4-8.6,6-13.5,6c-8.9,0-15.8-4.6-15.8-12.8c0-8.5,7.6-11.3,17.3-11.3H480
		c-0.2-5.8-2.1-8.3-9-8.3c-5,0-8.3,2.7-10.2,5.5l-8.1-5.3c4.2-5.1,9.7-8.6,18.2-8.6C482.6,199.5,489.6,206.1,489.6,215.7z
		 M480,223.3V223h-11.2c-4.8,0-7,2.3-7,4.7c0,2.6,2.3,4.4,7,4.4C475.3,232.1,479.3,227.9,480,223.3z"/>
	<g>
		
			<linearGradient id="SVGID_1_" gradientUnits="userSpaceOnUse" x1="40.6021" y1="76.145" x2="399.3745" y2="76.145" gradientTransform="matrix(1 0 0 -1 0 296)">
			<stop  offset="0" style="stop-color:#2655A8"/>
			<stop  offset="0.3187" style="stop-color:#245DA0"/>
			<stop  offset="0.8241" style="stop-color:#1D748C"/>
			<stop  offset="1" style="stop-color:#1A7E83"/>
		</linearGradient>
		<polygon class="st1" points="104.3,200.3 95.4,213.2 86.4,200.3 73.5,200.3 88.3,219.7 73.5,239.4 86.4,239.4 95.4,226.2 
			104.3,239.4 117.3,239.4 102.4,219.7 117.3,200.3 		"/>
		
			<linearGradient id="SVGID_00000110454865353936811430000016685277721411584910_" gradientUnits="userSpaceOnUse" x1="40.6021" y1="68.455" x2="399.3745" y2="68.455" gradientTransform="matrix(1 0 0 -1 0 296)">
			<stop  offset="0" style="stop-color:#2655A8"/>
			<stop  offset="0.3187" style="stop-color:#245DA0"/>
			<stop  offset="0.8241" style="stop-color:#1D748C"/>
			<stop  offset="1" style="stop-color:#1A7E83"/>
		</linearGradient>
		<path style="fill:url(#SVGID_00000110454865353936811430000016685277721411584910_);" d="M147.5,199.5c-4.5,0-9.3,1.4-12.4,4.7
			v-3.9h-10.9v55.3h10.9v-20.1c3,3.4,7.6,4.7,12.2,4.7c12.2,0,18.8-9.4,18.8-20.4C166,209,159.5,199.5,147.5,199.5z M144.8,231.5
			c-7.3,0-10.7-5.1-10.7-11.7s3.4-11.5,10.7-11.5c7.3,0,10.5,5,10.5,11.5C155.4,226.3,152.1,231.5,144.8,231.5z"/>
		
			<linearGradient id="SVGID_00000178171195510679430350000013228962687998667413_" gradientUnits="userSpaceOnUse" x1="40.6021" y1="76.165" x2="399.3745" y2="76.165" gradientTransform="matrix(1 0 0 -1 0 296)">
			<stop  offset="0" style="stop-color:#2655A8"/>
			<stop  offset="0.3187" style="stop-color:#245DA0"/>
			<stop  offset="0.8241" style="stop-color:#1D748C"/>
			<stop  offset="1" style="stop-color:#1A7E83"/>
		</linearGradient>
		<path style="fill:url(#SVGID_00000178171195510679430350000013228962687998667413_);" d="M192.6,199.5
			c-14.7,0-21.3,10.3-21.3,20.5c0,10.5,7,20.2,22,20.2c7.3,0,13.1-2.3,17.8-7l-7.3-5.8c-3,3-6.5,4.1-10.4,4.1
			c-6.8,0-9.9-3.4-10.9-8.6h29.8c0.2-0.5,0.4-2.1,0.4-3.8C212.7,210.5,207.8,199.5,192.6,199.5z M182.5,216.1c1-4.9,3.7-8.6,10-8.6
			c4.6,0,8.3,2.1,9.4,6.1c0.3,0.8,0.4,1.6,0.4,2.5L182.5,216.1L182.5,216.1z"/>
		
			<linearGradient id="SVGID_00000101075760453909842730000012076861428893766033_" gradientUnits="userSpaceOnUse" x1="40.6021" y1="76.56" x2="399.3745" y2="76.56" gradientTransform="matrix(1 0 0 -1 0 296)">
			<stop  offset="0" style="stop-color:#2655A8"/>
			<stop  offset="0.3187" style="stop-color:#245DA0"/>
			<stop  offset="0.8241" style="stop-color:#1D748C"/>
			<stop  offset="1" style="stop-color:#1A7E83"/>
		</linearGradient>
		<path style="fill:url(#SVGID_00000101075760453909842730000012076861428893766033_);" d="M231.9,206.9v-6.6h-10.3v39.1h10.2v-16.5
			c0-9.9,5.2-14.1,10.1-14.1c1.7,0,3.3,0.5,4.7,1.3l4.8-7.8c-2.1-1.9-5.1-2.8-8-2.8C238.6,199.5,233.7,202.1,231.9,206.9z"/>
		
			<linearGradient id="SVGID_00000077321743590767347440000003510981086709249668_" gradientUnits="userSpaceOnUse" x1="25.9033" y1="104.7229" x2="395.2039" y2="109.0422" gradientTransform="matrix(1 0 0 -1 0 296)">
			<stop  offset="0" style="stop-color:#0058CF"/>
			<stop  offset="0.208" style="stop-color:#0560C7"/>
			<stop  offset="0.5387" style="stop-color:#1477B0"/>
			<stop  offset="0.9489" style="stop-color:#2C9D8B"/>
			<stop  offset="1" style="stop-color:#2FA286"/>
		</linearGradient>
		
			<rect x="256.9" y="184.1" style="fill:url(#SVGID_00000077321743590767347440000003510981086709249668_);" width="11.1" height="8.8"/>
		
			<linearGradient id="SVGID_00000158723473654221910830000013336202524438695554_" gradientUnits="userSpaceOnUse" x1="40.6021" y1="76.145" x2="399.3745" y2="76.145" gradientTransform="matrix(1 0 0 -1 0 296)">
			<stop  offset="0" style="stop-color:#2655A8"/>
			<stop  offset="0.3187" style="stop-color:#245DA0"/>
			<stop  offset="0.8241" style="stop-color:#1D748C"/>
			<stop  offset="1" style="stop-color:#1A7E83"/>
		</linearGradient>
		
			<rect x="257.2" y="200.3" style="fill:url(#SVGID_00000158723473654221910830000013336202524438695554_);" width="10.6" height="39.1"/>
		
			<linearGradient id="SVGID_00000054247784574120512620000011110808936936445372_" gradientUnits="userSpaceOnUse" x1="40.6021" y1="76.165" x2="399.3745" y2="76.165" gradientTransform="matrix(1 0 0 -1 0 296)">
			<stop  offset="0" style="stop-color:#2655A8"/>
			<stop  offset="0.3187" style="stop-color:#245DA0"/>
			<stop  offset="0.8241" style="stop-color:#1D748C"/>
			<stop  offset="1" style="stop-color:#1A7E83"/>
		</linearGradient>
		<path style="fill:url(#SVGID_00000054247784574120512620000011110808936936445372_);" d="M297.9,199.5
			c-14.7,0-21.3,10.3-21.3,20.5c0,10.5,7,20.2,22,20.2c7.3,0,13.1-2.3,17.8-7l-7.3-5.8c-3,3-6.5,4.1-10.4,4.1
			c-6.8,0-10-3.4-10.9-8.6h29.8c0.2-0.5,0.4-2.1,0.4-3.8C318,210.5,313.1,199.5,297.9,199.5z M287.8,216.1c1-4.9,3.7-8.6,10-8.6
			c4.6,0,8.3,2.1,9.4,6.1c0.3,0.8,0.4,1.6,0.4,2.5L287.8,216.1L287.8,216.1z"/>
		
			<linearGradient id="SVGID_00000001638470784912339800000000393418064129329044_" gradientUnits="userSpaceOnUse" x1="40.6021" y1="76.555" x2="399.3745" y2="76.555" gradientTransform="matrix(1 0 0 -1 0 296)">
			<stop  offset="0" style="stop-color:#2655A8"/>
			<stop  offset="0.3187" style="stop-color:#245DA0"/>
			<stop  offset="0.8241" style="stop-color:#1D748C"/>
			<stop  offset="1" style="stop-color:#1A7E83"/>
		</linearGradient>
		<path style="fill:url(#SVGID_00000001638470784912339800000000393418064129329044_);" d="M350.2,199.5c-4.3,0-9.2,1.5-12.7,5.4
			v-4.5h-10.6v39.1h10.6V218c0-6.8,3.7-9.7,9.7-9.7c5.4,0,8.3,3.7,8.3,8.8v22.3H366v-23.5C366,207.7,361.5,199.5,350.2,199.5z"/>
		
			<linearGradient id="SVGID_00000165211325390030412430000012429006520295153545_" gradientUnits="userSpaceOnUse" x1="40.6021" y1="84.01" x2="399.3745" y2="84.01" gradientTransform="matrix(1 0 0 -1 0 296)">
			<stop  offset="0" style="stop-color:#2655A8"/>
			<stop  offset="0.3187" style="stop-color:#245DA0"/>
			<stop  offset="0.8241" style="stop-color:#1D748C"/>
			<stop  offset="1" style="stop-color:#1A7E83"/>
		</linearGradient>
		<path style="fill:url(#SVGID_00000165211325390030412430000012429006520295153545_);" d="M400.6,208.3v-8h-10.9v-16.5l-10.4,6.8
			v9.7h-7.2v8h7v20.3c0,7.1,5.1,11.6,13.5,11.6c3.2,0,6.3-0.6,7.9-1.2v-8.6c-1.4,0.6-3.8,1.4-6,1.4c-2.8,0-4.8-1.1-4.8-4.9v-18.6
			L400.6,208.3L400.6,208.3z"/>
		<path class="st10" d="M51.4,199.4c-14.4,0-20.9,10.2-20.9,20.2c0,10.4,6.9,19.9,21.6,19.9c6.9,0,12.3-2.1,16.9-6.3
			c0.3-0.3,0.3-0.9-0.1-1.2l-6.5-5.1c-3,3-6.4,4.1-10.3,4.1c-6.3,0-9.4-3-10.5-7.5c6.6,0.8,27.2,2.6,29.3-5c0.1-0.2,0.1-0.5,0.1-0.7
			c0-0.1,0-0.1,0-0.2C71.1,208.9,66.3,199.4,51.4,199.4z M41.2,221.1c-0.3-3,0.2-5.4,0.2-5.4c1-4.8,3.7-8.4,9.8-8.4
			c4.5,0,8.2,2,9.3,6c0.2,0.6,0.3,1.3,0.3,2C60.8,216.5,59.4,221.4,41.2,221.1z"/>
	</g>
	<g>
		<g>
			
				<linearGradient id="SVGID_00000132780513706495308770000001705350853966744989_" gradientUnits="userSpaceOnUse" x1="263.4955" y1="128.7627" x2="250.8639" y2="213.3942" gradientTransform="matrix(1 0 0 -1 0 296)">
				<stop  offset="0" style="stop-color:#0058CF"/>
				<stop  offset="0.208" style="stop-color:#0560C7"/>
				<stop  offset="0.5387" style="stop-color:#1477B0"/>
				<stop  offset="0.9489" style="stop-color:#2C9D8B"/>
				<stop  offset="1" style="stop-color:#2FA286"/>
			</linearGradient>
			<path style="fill:url(#SVGID_00000132780513706495308770000001705350853966744989_);" d="M251.2,136.2
				c-20.2,0-27.8-10.6-27.9-26.4l0,0c0.2-7.5,1.8-9.1,2.9-13.4c0.9-3.7,1.3-8,1.3-8c5.5-14.7,14.9-26,33.2-26
				c13.6,0,23.7,6.4,24.9,18.8c0.4,2.4,0.2,4.9-0.2,7.6h-0.7c2.4,4.5-0.1,12.7-1.9,18.5c0.2,0.2,0.2,0.1,0.5,0.3
				c9.1-7.9,21.4-11.3,31.8-16.1c0.2-0.1,0.5-2.8,0.7-2.8c1.7-25.3-9.5-50.8-50.6-50.9c-43.5-0.1-68.3,31.6-73.4,62.8
				c-5.3,32.3,10.7,62.1,55,62.2c18.1,0,43.6-5.8,57.8-17.4c2.7-2.2,5-4.7,6.8-7.3l-20.9-14l0,0
				C277.2,133.8,260.2,136.2,251.2,136.2z"/>
		</g>
		<g>
			<path class="st12" d="M124.1,122.6c-3.1,0-6.2-1-8.8-3c-6.2-4.7-7.3-13.5-2.4-19.5c1.3-1.6,32.2-38.9,96.1-16.2
				c43.3,15.4,73.1,2.8,82.8-6c5.8-5.2,14.8-4.9,20.2,0.6c5.4,5.6,5.1,14.3-0.6,19.6c-15.2,13.8-55.9,31.8-112.2,11.8
				c-43.6-15.5-63,6.5-63.8,7.4C132.5,120.8,128.3,122.6,124.1,122.6z"/>
		</g>
	</g>
</g>
</svg>
